<svg width="296" height="90" viewBox="0 0 296 90" fill="none" xmlns="http://www.w3.org/2000/svg">
<path d="M81.203 28.5813V61.4187C81.203 65.7638 78.8524 69.8239 75.1484 71.9608L46.7274 88.3439C42.9521 90.5521 38.2509 90.5521 34.5469 88.3439L19.5884 79.725L16.0269 77.6593L6.12584 71.9608C2.35061 69.8239 0 65.7638 0 61.4187V28.5813C0 24.2363 2.35061 20.1761 6.12584 18.1104L19.3748 10.4175L22.7938 8.42303L34.5469 1.65611C38.3221 -0.552038 43.0234 -0.552038 46.7274 1.65611L75.1484 18.0392C78.8524 20.2473 81.203 24.3075 81.203 28.5813Z" fill="#4169E1"/>
<path fill-rule="evenodd" clip-rule="evenodd" d="M22.7941 8.42285L37.6813 17.8253H37.7525L34.9745 20.2472H34.9033L19.375 10.4173L22.7941 8.42285Z" fill="black"/>
<path d="M40.3881 28.2965C38.6785 28.2965 36.969 27.8691 35.5444 26.9431C33.8348 25.8746 32.7664 24.2363 32.6239 22.3843C32.4815 20.6035 33.265 18.7515 34.8321 17.4694C37.7525 14.9763 42.5962 14.6202 45.8016 16.6146C47.5111 17.6831 48.5796 19.3214 48.7221 21.1734C48.8645 22.9542 48.081 24.8062 46.5139 26.0883C44.9468 27.5129 42.6675 28.2965 40.3881 28.2965ZM41.0291 18.9652C39.6758 18.9652 38.2512 19.3926 37.2539 20.2474C36.6128 20.8172 36.2567 21.4583 36.3279 22.0994C36.3992 22.7405 36.8265 23.3815 37.5388 23.8089C39.4621 25.0198 42.4538 24.8062 44.1633 23.3103C44.8044 22.7405 45.1605 22.0994 45.0893 21.4583C45.0181 20.8172 44.5907 20.1762 43.8784 19.7488C43.0948 19.2502 42.0264 18.9652 41.0291 18.9652Z" fill="black"/>
<path fill-rule="evenodd" clip-rule="evenodd" d="M81.2031 43.5398L65.0337 50.8053L65.6035 54.4381L81.2031 47.4575V43.5398Z" fill="black"/>
<path d="M59.4776 62.487C58.5516 62.487 57.6256 62.2733 56.7708 61.8459C55.1325 60.9912 54.0641 59.3529 53.7079 57.3584C53.0668 53.5119 55.3462 49.3093 58.9078 47.671C60.7598 46.8163 62.7542 46.8875 64.3213 47.7423C65.9596 48.597 67.0281 50.2353 67.3842 52.2298C68.0253 56.0762 65.7459 60.2789 62.1844 61.9172C61.3296 62.2733 60.4036 62.487 59.4776 62.487ZM61.6858 50.6627C61.3296 50.6627 60.9022 50.7339 60.4748 50.9476C58.4804 51.8736 57.0558 54.5092 57.4119 56.6461C57.5544 57.5009 57.9818 58.2132 58.5516 58.4981C59.1214 58.8542 59.905 58.783 60.7598 58.4269C62.7542 57.5009 64.1788 54.8653 63.8227 52.7284C63.6802 51.8736 63.2528 51.1613 62.683 50.8764C62.3981 50.7339 62.0419 50.6627 61.6858 50.6627Z" fill="black"/>
<path fill-rule="evenodd" clip-rule="evenodd" d="M19.5884 62.6296V79.7249L16.0269 77.7305V61.6323L19.5884 62.6296Z" fill="black"/>
<path d="M19.0897 64.4815C18.5199 64.4815 17.8788 64.4102 17.309 64.2678C13.5337 63.2705 10.6133 59.4241 10.6133 55.5776C10.6133 53.5832 11.4681 51.7312 12.8927 50.6627C14.3173 49.523 16.3117 49.2381 18.235 49.7367C22.0102 50.7339 24.9307 54.5092 24.9307 58.4269C24.9307 60.4213 24.0759 62.2733 22.6513 63.3418C21.654 64.1253 20.4431 64.4815 19.0897 64.4815ZM16.4542 53.1558C15.9556 53.1558 15.5282 53.2982 15.172 53.5832C14.6022 54.0105 14.3173 54.7229 14.3173 55.5776C14.3173 57.7858 16.098 60.1364 18.3062 60.7062C19.161 60.9199 19.9445 60.8487 20.4431 60.4213C21.013 59.9939 21.2979 59.2816 21.2979 58.4269C21.2979 56.2187 19.5171 53.8681 17.309 53.2982C17.024 53.1558 16.7391 53.1558 16.4542 53.1558Z" fill="black"/>
<path d="M131.556 39.77C131.991 40.697 132.274 41.69 132.407 42.748C132.558 43.788 132.633 45.055 132.633 46.549V65.411H127.386V60.958C126.119 62.754 124.578 64.087 122.763 64.957C120.967 65.827 118.83 66.262 116.353 66.262C114.159 66.262 112.287 65.855 110.737 65.042C109.186 64.21 108.004 63.104 107.191 61.724C106.397 60.324 106 58.774 106 57.072C106 52.553 108.411 49.527 113.233 47.996C114.689 47.561 116.334 47.192 118.168 46.89C120.021 46.568 122.583 46.18 125.855 45.727L126.791 45.613C126.696 43.458 126.11 41.888 125.032 40.905C123.954 39.903 122.233 39.402 119.87 39.402C118.149 39.402 116.636 39.799 115.332 40.593C114.027 41.387 113.129 42.597 112.637 44.223L107.106 42.522C107.863 39.818 109.319 37.709 111.474 36.196C113.649 34.684 116.466 33.927 119.927 33.927C122.744 33.927 125.155 34.41 127.159 35.374C129.164 36.338 130.629 37.804 131.556 39.77ZM117.402 61.412C119.009 61.412 120.428 61.128 121.657 60.561C122.886 59.975 123.869 59.218 124.607 58.292C125.363 57.365 125.864 56.382 126.11 55.342C126.488 54.245 126.696 52.647 126.734 50.548L125.996 50.662C123.236 51.059 121.165 51.38 119.785 51.626C118.423 51.872 117.194 52.156 116.097 52.477C114.774 52.931 113.734 53.517 112.977 54.236C112.24 54.954 111.871 55.881 111.871 57.015C111.871 58.282 112.335 59.332 113.261 60.164C114.207 60.996 115.587 61.412 117.402 61.412ZM138.864 24H144.792V29.758H138.864V24ZM138.864 34.778H144.792V65.411H138.864V34.778Z" fill="#4169E1"/>
<path d="M162.925 66.205C160.58 66.205 158.491 65.874 156.657 65.212C154.823 64.532 153.329 63.558 152.175 62.291C151.022 61.005 150.266 59.483 149.906 57.724L153.253 57.157C153.745 58.991 154.86 60.447 156.6 61.525C158.359 62.584 160.514 63.114 163.067 63.114C164.75 63.114 166.215 62.877 167.463 62.404C168.711 61.913 169.666 61.213 170.328 60.306C171.009 59.379 171.349 58.301 171.349 57.072C171.349 55.994 171.113 55.143 170.64 54.519C170.167 53.895 169.279 53.319 167.974 52.789C166.688 52.241 164.646 51.588 161.847 50.832C158.935 50.057 156.695 49.3 155.125 48.563C153.575 47.807 152.468 46.956 151.807 46.01C151.164 45.065 150.842 43.874 150.842 42.436C150.842 40.772 151.324 39.298 152.289 38.012C153.253 36.726 154.605 35.724 156.345 35.005C158.084 34.287 160.079 33.927 162.33 33.927C164.58 33.927 166.612 34.306 168.428 35.062C170.262 35.799 171.737 36.839 172.852 38.182C173.968 39.524 174.611 41.066 174.781 42.805L171.434 43.429C171.226 42.124 170.697 40.99 169.846 40.026C168.995 39.061 167.889 38.324 166.527 37.813C165.185 37.284 163.653 37.019 161.932 37.019C160.42 37.019 159.077 37.246 157.905 37.7C156.732 38.135 155.815 38.749 155.154 39.543C154.511 40.338 154.189 41.245 154.189 42.266C154.189 43.193 154.454 43.968 154.983 44.592C155.513 45.197 156.42 45.764 157.706 46.294C159.011 46.823 160.892 47.4 163.351 48.024C166.338 48.78 168.645 49.556 170.271 50.35C171.898 51.144 173.051 52.071 173.732 53.13C174.431 54.17 174.781 55.493 174.781 57.1C174.781 58.991 174.308 60.618 173.363 61.979C172.418 63.34 171.047 64.39 169.25 65.127C167.473 65.846 165.364 66.205 162.925 66.205ZM193.106 33.927C195.81 33.927 198.155 34.627 200.14 36.026C202.125 37.426 203.638 39.354 204.678 41.812C205.737 44.252 206.266 46.994 206.266 50.038C206.266 53.139 205.737 55.919 204.678 58.377C203.619 60.816 202.078 62.745 200.055 64.163C198.032 65.562 195.611 66.262 192.794 66.262C190.581 66.262 188.615 65.78 186.894 64.815C185.173 63.832 183.755 62.461 182.64 60.703V79.026H179.378V34.778H182.356V39.884C183.472 37.993 184.937 36.527 186.752 35.487C188.568 34.447 190.685 33.927 193.106 33.927ZM192.595 63.142C194.789 63.142 196.642 62.575 198.155 61.44C199.686 60.306 200.84 58.755 201.615 56.788C202.39 54.803 202.778 52.553 202.778 50.038C202.778 47.523 202.4 45.292 201.643 43.344C200.887 41.378 199.743 39.836 198.211 38.721C196.68 37.605 194.789 37.047 192.539 37.047C190.345 37.047 188.483 37.596 186.951 38.692C185.419 39.789 184.266 41.321 183.491 43.287C182.734 45.235 182.356 47.485 182.356 50.038C182.356 52.591 182.734 54.86 183.491 56.845C184.266 58.812 185.419 60.353 186.951 61.468C188.483 62.584 190.364 63.142 192.595 63.142ZM233.75 40.196C234.298 41.633 234.572 43.675 234.572 46.322V65.411H231.594V60.079C230.422 62.064 228.805 63.596 226.744 64.674C224.683 65.732 222.319 66.262 219.653 66.262C217.384 66.262 215.455 65.855 213.867 65.042C212.279 64.229 211.087 63.142 210.293 61.78C209.499 60.4 209.102 58.887 209.102 57.242C209.102 54.803 209.83 52.865 211.286 51.428C212.761 49.991 214.718 48.988 217.157 48.421C218.802 48.062 220.551 47.75 222.404 47.485C224.276 47.22 226.612 46.908 229.41 46.549C229.675 46.511 229.968 46.483 230.29 46.464C230.611 46.426 230.951 46.379 231.311 46.322C231.311 43.146 230.63 40.81 229.268 39.316C227.907 37.823 225.657 37.076 222.518 37.076C217.753 37.076 214.784 39.222 213.612 43.514L210.265 42.578C210.964 39.799 212.373 37.662 214.491 36.168C216.609 34.674 219.322 33.927 222.631 33.927C225.43 33.927 227.794 34.476 229.722 35.572C231.651 36.669 232.994 38.21 233.75 40.196ZM219.823 63.255C221.866 63.255 223.681 62.887 225.269 62.149C226.858 61.393 228.134 60.343 229.098 59.001C230.082 57.639 230.706 56.042 230.97 54.207C231.197 52.978 231.311 51.352 231.311 49.329L230.148 49.442C227.274 49.745 224.948 50.019 223.17 50.265C221.393 50.511 219.757 50.823 218.263 51.201C216.618 51.636 215.238 52.335 214.122 53.3C213.007 54.245 212.449 55.569 212.449 57.271C212.449 58.292 212.695 59.256 213.186 60.164C213.678 61.071 214.472 61.818 215.569 62.404C216.684 62.972 218.103 63.255 219.823 63.255ZM252.744 66.262C249.756 66.262 247.203 65.591 245.086 64.248C242.968 62.887 241.361 60.996 240.264 58.575C239.167 56.136 238.59 53.309 238.534 50.095C238.59 46.823 239.167 43.978 240.264 41.557C241.379 39.137 242.996 37.265 245.114 35.941C247.232 34.599 249.785 33.927 252.772 33.927C254.739 33.927 256.563 34.258 258.246 34.92C259.929 35.563 261.376 36.49 262.586 37.7C263.815 38.891 264.723 40.309 265.309 41.954L262.132 43.117C261.357 41.226 260.137 39.751 258.473 38.692C256.809 37.634 254.899 37.104 252.744 37.104C249.246 37.104 246.589 38.276 244.774 40.621C242.977 42.947 242.06 46.105 242.022 50.095C242.06 52.742 242.476 55.039 243.27 56.987C244.083 58.916 245.284 60.419 246.873 61.497C248.48 62.556 250.437 63.085 252.744 63.085C254.899 63.085 256.771 62.584 258.36 61.582C259.967 60.58 261.206 59.124 262.075 57.214L265.309 58.32C264.099 60.93 262.425 62.906 260.289 64.248C258.171 65.591 255.656 66.262 252.744 66.262ZM270.541 51.031C270.692 54.869 271.694 57.838 273.547 59.937C275.419 62.036 278 63.085 281.29 63.085C283.635 63.085 285.696 62.537 287.474 61.44C289.251 60.343 290.66 58.755 291.7 56.675L294.65 57.98C293.421 60.608 291.643 62.65 289.317 64.106C286.992 65.543 284.335 66.262 281.347 66.262C278.435 66.262 275.901 65.61 273.746 64.305C271.59 62.981 269.926 61.109 268.754 58.689C267.6 56.268 267.024 53.423 267.024 50.151C267.024 46.823 267.6 43.94 268.754 41.5C269.907 39.061 271.552 37.189 273.689 35.884C275.845 34.58 278.378 33.927 281.29 33.927C284.259 33.927 286.802 34.608 288.92 35.97C291.038 37.312 292.636 39.269 293.714 41.841C294.81 44.412 295.34 47.476 295.302 51.031H270.541ZM281.347 37.019C278.189 37.019 275.684 37.983 273.831 39.912C271.978 41.822 270.9 44.545 270.597 48.081H291.785C291.464 44.469 290.414 41.727 288.637 39.855C286.859 37.964 284.429 37.019 281.347 37.019Z" fill="white"/>
</svg>
