<svg width="190" height="254" viewBox="0 0 190 254" fill="none" xmlns="http://www.w3.org/2000/svg">
<path d="M175.855 57.1626V122.837C175.855 131.527 171.154 139.648 163.746 143.922L106.904 176.688C99.3534 181.104 89.951 181.104 82.543 176.688L52.6261 159.45L45.503 155.319L25.7009 143.922C18.1504 139.648 13.4492 131.527 13.4492 122.837V57.1626C13.4492 48.4725 18.1504 40.3522 25.7009 36.2208L52.1987 20.835L59.0369 16.8461L82.543 3.31223C90.0935 -1.10408 99.4959 -1.10408 106.904 3.31223L163.746 36.0784C171.154 40.4947 175.855 48.615 175.855 57.1626Z" fill="#4169E1"/>
<path fill-rule="evenodd" clip-rule="evenodd" d="M59.0369 16.8457L88.8113 35.6506H88.9538L83.3976 40.4943H83.2553L52.1987 20.8346L59.0369 16.8457Z" fill="black"/>
<path d="M94.2249 56.5927C90.8058 56.5927 87.3867 55.7379 84.5375 53.8859C81.1184 51.749 78.9815 48.4724 78.6966 44.7684C78.4117 41.2068 79.9787 37.5028 83.1129 34.9385C88.9538 29.9524 98.6412 29.2401 105.052 33.229C108.471 35.3659 110.608 38.6425 110.893 42.3465C111.178 45.9081 109.611 49.6121 106.477 52.1764C103.342 55.0256 98.7836 56.5927 94.2249 56.5927ZM95.507 37.9302C92.8003 37.9302 89.951 38.785 87.9566 40.4945C86.6744 41.6342 85.9621 42.9164 86.1046 44.1985C86.247 45.4807 87.1018 46.7628 88.5264 47.6176C92.3729 50.0394 98.3563 49.6121 101.775 46.6204C103.057 45.4807 103.77 44.1985 103.627 42.9164C103.485 41.6342 102.63 40.3521 101.205 39.4973C99.6384 38.5001 97.5015 37.9302 95.507 37.9302Z" fill="black"/>
<path fill-rule="evenodd" clip-rule="evenodd" d="M175.855 87.0798L143.517 101.611L144.656 108.876L175.855 94.9152V87.0798Z" fill="black"/>
<path d="M132.404 124.975C130.552 124.975 128.7 124.547 126.99 123.692C123.714 121.983 121.577 118.706 120.865 114.717C119.582 107.024 124.141 98.6192 131.264 95.3425C134.968 93.633 138.957 93.7755 142.091 95.485C145.368 97.1945 147.505 100.471 148.217 104.46C149.499 112.153 144.941 120.558 137.817 123.835C136.108 124.547 134.256 124.975 132.404 124.975ZM136.82 101.326C136.108 101.326 135.253 101.468 134.398 101.896C130.409 103.748 127.56 109.019 128.273 113.293C128.557 115.002 129.412 116.427 130.552 116.997C131.692 117.709 133.259 117.567 134.968 116.854C138.957 115.002 141.806 109.731 141.094 105.457C140.809 103.748 139.954 102.323 138.815 101.753C138.245 101.468 137.533 101.326 136.82 101.326Z" fill="black"/>
<path fill-rule="evenodd" clip-rule="evenodd" d="M52.626 125.259V159.45L45.5029 155.461V123.265L52.626 125.259Z" fill="black"/>
<path d="M51.6287 128.963C50.489 128.963 49.2068 128.821 48.0672 128.536C40.5167 126.542 34.6758 118.849 34.6758 111.156C34.6758 107.167 36.3853 103.463 39.2345 101.326C42.0838 99.0465 46.0727 98.4767 49.9192 99.4739C57.4696 101.468 63.3105 109.019 63.3105 116.854C63.3105 120.843 61.601 124.547 58.7518 126.684C56.7573 128.251 54.3355 128.963 51.6287 128.963ZM46.3576 106.312C45.3604 106.312 44.5056 106.597 43.7933 107.167C42.6536 108.022 42.0838 109.446 42.0838 111.156C42.0838 115.572 45.6453 120.273 50.0616 121.413C51.7712 121.84 53.3382 121.698 54.3355 120.843C55.4751 119.988 56.045 118.564 56.045 116.854C56.045 112.438 52.4835 107.737 48.0672 106.597C47.4973 106.312 46.9275 106.312 46.3576 106.312Z" fill="black"/>
<path d="M25.5556 213.77C25.9905 214.697 26.2742 215.69 26.4065 216.748C26.5578 217.788 26.6334 219.055 26.6334 220.549V239.411H21.3862V234.958C20.1193 236.754 18.5782 238.087 16.7629 238.957C14.9665 239.827 12.8298 240.262 10.3527 240.262C8.15931 240.262 6.28727 239.855 4.73673 239.042C3.18618 238.21 2.00436 237.104 1.19127 235.724C0.39709 234.324 0 232.774 0 231.072C0 226.553 2.41091 223.527 7.23273 221.996C8.68871 221.561 10.3338 221.192 12.168 220.89C14.0211 220.568 16.5833 220.18 19.8545 219.727L20.7905 219.613C20.696 217.458 20.1098 215.888 19.032 214.905C17.9542 213.903 16.2334 213.402 13.8698 213.402C12.1491 213.402 10.6364 213.799 9.33161 214.593C8.02691 215.387 7.12873 216.597 6.63709 218.223L1.10618 216.522C1.86255 213.818 3.31855 211.709 5.47418 210.196C7.64873 208.684 10.4662 207.927 13.9265 207.927C16.744 207.927 19.1549 208.41 21.1593 209.374C23.1636 210.338 24.6291 211.804 25.5556 213.77ZM11.4022 235.412C13.0094 235.412 14.4276 235.128 15.6567 234.561C16.8858 233.975 17.8691 233.218 18.6065 232.292C19.3629 231.365 19.864 230.382 20.1098 229.342C20.488 228.245 20.696 226.647 20.7338 224.548L19.9964 224.662C17.2356 225.059 15.1651 225.38 13.7847 225.626C12.4233 225.872 11.1942 226.156 10.0974 226.477C8.77381 226.931 7.73381 227.517 6.97746 228.236C6.24 228.954 5.87127 229.881 5.87127 231.015C5.87127 232.282 6.33455 233.332 7.26109 234.164C8.20651 234.996 9.58691 235.412 11.4022 235.412ZM32.8641 198H38.7921V203.758H32.8641V198ZM32.8641 208.778H38.7921V239.411H32.8641V208.778Z" fill="#4169E1"/>
<path d="M56.9252 240.205C54.5805 240.205 52.491 239.874 50.6569 239.212C48.8227 238.532 47.3289 237.558 46.1754 236.291C45.022 235.005 44.2655 233.483 43.9062 231.724L47.2532 231.157C47.7449 232.991 48.8605 234.447 50.6001 235.525C52.3587 236.584 54.5143 237.114 57.067 237.114C58.75 237.114 60.2154 236.877 61.4634 236.404C62.7114 235.913 63.6663 235.213 64.3281 234.306C65.0089 233.379 65.3491 232.301 65.3491 231.072C65.3491 229.994 65.1128 229.143 64.64 228.519C64.1673 227.895 63.2787 227.319 61.9739 226.789C60.688 226.241 58.646 225.588 55.8474 224.832C52.9354 224.057 50.6947 223.3 49.1252 222.563C47.5747 221.807 46.4685 220.956 45.8067 220.01C45.1638 219.065 44.8423 217.874 44.8423 216.436C44.8423 214.772 45.3245 213.298 46.2889 212.012C47.2532 210.726 48.6052 209.724 50.3449 209.005C52.0845 208.287 54.0794 207.927 56.3296 207.927C58.5798 207.927 60.6125 208.306 62.4278 209.062C64.262 209.799 65.7369 210.839 66.8525 212.182C67.9681 213.524 68.611 215.066 68.7812 216.805L65.4343 217.429C65.2263 216.124 64.6969 214.99 63.846 214.026C62.995 213.061 61.8889 212.324 60.5274 211.813C59.1849 211.284 57.6532 211.019 55.9325 211.019C54.4198 211.019 53.0772 211.246 51.9049 211.7C50.7325 212.135 49.8154 212.749 49.1536 213.543C48.5107 214.338 48.1892 215.245 48.1892 216.266C48.1892 217.193 48.454 217.968 48.9834 218.592C49.5129 219.197 50.4205 219.764 51.7063 220.294C53.011 220.823 54.8925 221.4 57.3507 222.024C60.3383 222.78 62.6452 223.556 64.2714 224.35C65.8976 225.144 67.051 226.071 67.7318 227.13C68.4314 228.17 68.7812 229.493 68.7812 231.1C68.7812 232.991 68.3084 234.618 67.3629 235.979C66.4175 237.34 65.0466 238.39 63.2502 239.127C61.4728 239.846 59.3645 240.205 56.9252 240.205ZM87.1059 207.927C89.8099 207.927 92.1545 208.627 94.14 210.026C96.1255 211.426 97.6382 213.354 98.6782 215.812C99.7372 218.252 100.266 220.994 100.266 224.038C100.266 227.139 99.7372 229.919 98.6782 232.377C97.6194 234.816 96.0783 236.745 94.055 238.163C92.0317 239.562 89.6114 240.262 86.7938 240.262C84.5815 240.262 82.615 239.78 80.8943 238.815C79.1735 237.832 77.7554 236.461 76.6397 234.703V253.026H73.3778V208.778H76.3561V213.884C77.4717 211.993 78.9372 210.527 80.7525 209.487C82.5677 208.447 84.6855 207.927 87.1059 207.927ZM86.5953 237.142C88.7887 237.142 90.6419 236.575 92.1546 235.44C93.6863 234.306 94.8396 232.755 95.6149 230.788C96.3902 228.803 96.7779 226.553 96.7779 224.038C96.7779 221.523 96.3997 219.292 95.6434 217.344C94.887 215.378 93.743 213.836 92.2114 212.721C90.6797 211.605 88.7888 211.047 86.5386 211.047C84.3452 211.047 82.4826 211.596 80.951 212.692C79.4194 213.789 78.2659 215.321 77.4906 217.287C76.7343 219.235 76.3561 221.485 76.3561 224.038C76.3561 226.591 76.7343 228.86 77.4906 230.845C78.2659 232.812 79.4194 234.353 80.951 235.468C82.4826 236.584 84.364 237.142 86.5953 237.142ZM127.75 214.196C128.298 215.633 128.572 217.675 128.572 220.322V239.411H125.594V234.079C124.422 236.064 122.805 237.596 120.744 238.674C118.683 239.732 116.319 240.262 113.653 240.262C111.384 240.262 109.455 239.855 107.867 239.042C106.279 238.229 105.087 237.142 104.293 235.78C103.499 234.4 103.102 232.887 103.102 231.242C103.102 228.803 103.83 226.865 105.286 225.428C106.761 223.991 108.718 222.988 111.157 222.421C112.802 222.062 114.551 221.75 116.404 221.485C118.276 221.22 120.612 220.908 123.41 220.549C123.675 220.511 123.968 220.483 124.29 220.464C124.611 220.426 124.951 220.379 125.311 220.322C125.311 217.146 124.63 214.81 123.268 213.316C121.907 211.823 119.657 211.076 116.518 211.076C111.753 211.076 108.784 213.222 107.612 217.514L104.265 216.578C104.964 213.799 106.373 211.662 108.491 210.168C110.609 208.674 113.322 207.927 116.631 207.927C119.43 207.927 121.794 208.476 123.722 209.572C125.651 210.669 126.994 212.21 127.75 214.196ZM113.823 237.255C115.866 237.255 117.681 236.887 119.269 236.149C120.858 235.393 122.134 234.343 123.098 233.001C124.082 231.639 124.706 230.042 124.97 228.207C125.197 226.978 125.311 225.352 125.311 223.329L124.148 223.442C121.274 223.745 118.948 224.019 117.17 224.265C115.393 224.511 113.757 224.823 112.263 225.201C110.618 225.636 109.238 226.335 108.122 227.3C107.007 228.245 106.449 229.569 106.449 231.271C106.449 232.292 106.695 233.256 107.186 234.164C107.678 235.071 108.472 235.818 109.569 236.404C110.684 236.972 112.103 237.255 113.823 237.255ZM146.744 240.262C143.756 240.262 141.203 239.591 139.086 238.248C136.968 236.887 135.361 234.996 134.264 232.575C133.167 230.136 132.59 227.309 132.534 224.095C132.59 220.823 133.167 217.978 134.264 215.557C135.379 213.137 136.996 211.265 139.114 209.941C141.232 208.599 143.785 207.927 146.772 207.927C148.739 207.927 150.563 208.258 152.246 208.92C153.929 209.563 155.376 210.49 156.586 211.7C157.815 212.891 158.723 214.309 159.309 215.954L156.132 217.117C155.357 215.226 154.137 213.751 152.473 212.692C150.809 211.634 148.899 211.104 146.744 211.104C143.246 211.104 140.589 212.276 138.774 214.621C136.977 216.947 136.06 220.105 136.022 224.095C136.06 226.742 136.476 229.039 137.27 230.987C138.083 232.916 139.284 234.419 140.873 235.497C142.48 236.556 144.437 237.085 146.744 237.085C148.899 237.085 150.771 236.584 152.36 235.582C153.967 234.58 155.206 233.124 156.075 231.214L159.309 232.32C158.099 234.93 156.425 236.906 154.289 238.248C152.171 239.591 149.656 240.262 146.744 240.262ZM164.541 225.031C164.692 228.869 165.694 231.838 167.547 233.937C169.419 236.036 172 237.085 175.29 237.085C177.635 237.085 179.696 236.537 181.474 235.44C183.251 234.343 184.66 232.755 185.7 230.675L188.65 231.98C187.421 234.608 185.643 236.65 183.317 238.106C180.992 239.543 178.335 240.262 175.347 240.262C172.435 240.262 169.901 239.61 167.746 238.305C165.59 236.981 163.926 235.109 162.754 232.689C161.6 230.268 161.024 227.423 161.024 224.151C161.024 220.823 161.6 217.94 162.754 215.5C163.907 213.061 165.552 211.189 167.689 209.884C169.845 208.58 172.378 207.927 175.29 207.927C178.259 207.927 180.802 208.608 182.92 209.97C185.038 211.312 186.636 213.269 187.714 215.841C188.81 218.412 189.34 221.476 189.302 225.031H164.541ZM175.347 211.019C172.189 211.019 169.684 211.983 167.831 213.912C165.978 215.822 164.9 218.545 164.597 222.081H185.785C185.464 218.469 184.414 215.727 182.637 213.855C180.859 211.964 178.429 211.019 175.347 211.019Z" fill="white"/>
</svg>
