<svg width="166" height="246" viewBox="0 0 166 246" fill="none" xmlns="http://www.w3.org/2000/svg">
<g clip-path="url(#clip0_582_129)">
<rect width="166" height="157.263" fill="#4169E1"/>
<path d="M70.7686 94.3579H138.042V131.053C138.042 132.018 137.26 132.8 136.295 132.8H83.0001C76.2448 132.8 70.7686 127.324 70.7686 120.568V94.3579Z" fill="#232323"/>
<path d="M106.646 143.396C115.362 143.396 122.428 136.33 122.428 127.614C122.428 118.898 115.362 111.832 106.646 111.832C97.9293 111.832 90.8633 118.898 90.8633 127.614C90.8633 136.33 97.9293 143.396 106.646 143.396Z" fill="#232323"/>
<path d="M106.645 135.054C110.754 135.054 114.086 131.723 114.086 127.614C114.086 123.505 110.754 120.174 106.645 120.174C102.536 120.174 99.2051 123.505 99.2051 127.614C99.2051 131.723 102.536 135.054 106.645 135.054Z" fill="#F3F3F3"/>
<rect x="-34.1743" y="19.2211" width="98.7263" height="79.7285" rx="6.98947" fill="white"/>
<path d="M-20.9137 128.394H83.7363V116.571H-27.0903C-25.3256 120.63 -23.2079 124.512 -20.9137 128.394Z" fill="#232323"/>
<path d="M20.9097 143.471C29.626 143.471 36.692 136.405 36.692 127.688C36.692 118.972 29.626 111.906 20.9097 111.906C12.1934 111.906 5.12744 118.972 5.12744 127.688C5.12744 136.405 12.1934 143.471 20.9097 143.471Z" fill="#232323"/>
<path d="M20.9095 135.129C25.0186 135.129 28.3497 131.798 28.3497 127.689C28.3497 123.579 25.0186 120.248 20.9095 120.248C16.8003 120.248 13.4692 123.579 13.4692 127.689C13.4692 131.798 16.8003 135.129 20.9095 135.129Z" fill="#F3F3F3"/>
<path d="M140.662 94.1328V102.373C140.662 102.904 140.485 103.259 140.132 103.436C139.778 103.79 139.424 103.967 139.07 103.967C139.07 103.967 128.985 104.144 121.2 100.069C120.846 99.8922 120.669 99.715 120.315 99.715C114.122 96.703 107.222 95.1084 100.145 95.1084H73.7819C73.7819 95.1084 72.8972 73.7616 73.7819 55.8666C74.6665 37.9716 79.7849 34.1553 79.7849 34.1553C79.7849 34.1553 121.2 45.0587 128.1 56.9297C131.462 62.9537 134.116 70.9267 136.062 77.3051C138.008 83.8607 138.893 88.8217 138.893 88.8217C139.955 88.8217 140.662 93.2469 140.662 94.1328Z" fill="white"/>
<path d="M140.126 88.5588L140.563 93.6287C140.033 93.6287 140.36 93.6287 135.994 93.6287H133.973C132.426 93.6287 131.915 93.6287 131.209 93.6287H127.856C126.974 93.6287 126.268 93.4522 125.562 93.0993C118.856 90.0992 113.032 87.4521 108.444 84.452C103.326 81.2754 99.6201 75.9812 98.2083 70.1575L96.7965 64.3338C96.62 63.4514 97.1495 62.7455 98.0318 62.7455H131.033C135.974 74.3929 140.126 88.5588 140.126 88.5588Z" fill="#232323"/>
<rect width="41.9368" height="14.8526" rx="2.62105" transform="matrix(-1 0 0 1 40.0889 103.848)" fill="#232323"/>
<path d="M70.668 41.0223C70.668 37.1621 73.7973 34.0328 77.6574 34.0328H78.5311C81.9088 34.0328 84.6469 36.771 84.6469 40.1486V90.7391C84.6469 93.1517 82.6911 95.1075 80.2785 95.1075H70.668V41.0223Z" fill="white"/>
<path d="M28.4106 34.2112C30.3141 33.0978 32.6793 33.1028 34.5308 34.2063L34.5444 34.2141L51.313 43.8801C53.185 44.9995 54.3666 47.0552 54.3667 49.1956V68.5774C54.3666 70.6316 53.3218 72.5604 51.6597 73.677L51.3188 73.8889L34.5444 83.5579L34.5386 83.5618C32.635 84.6752 30.2699 84.6695 28.4185 83.5657L28.4048 83.5579L19.5757 78.471L17.4761 77.2532L17.4731 77.2512L11.6294 73.888L11.6235 73.885L11.2759 73.6721C9.5835 72.5552 8.54063 70.6294 8.54053 68.5774V49.1956C8.5406 47.0038 9.72864 44.9671 11.6099 43.9378L11.6333 43.9241L19.4526 39.384L19.4546 39.3831L21.4731 38.2053L21.4722 38.2044L28.4048 34.2151L28.4106 34.2112Z" stroke="#4169E1" stroke-width="2.1021"/>
<path fill-rule="evenodd" clip-rule="evenodd" d="M20.9428 37.2978L29.7296 42.8473H29.7716L28.132 44.2767H28.0899L18.9248 38.475L20.9428 37.2978Z" fill="#4169E1"/>
<path d="M31.3262 49.0275C30.3172 49.0275 29.3082 48.7752 28.4673 48.2287C27.4583 47.598 26.8277 46.6311 26.7436 45.538C26.6595 44.4869 27.122 43.3938 28.0469 42.6371C29.7706 41.1656 32.6295 40.9554 34.5214 42.1326C35.5304 42.7632 36.161 43.7302 36.2451 44.8233C36.3292 45.8743 35.8667 46.9674 34.9418 47.7242C34.0169 48.565 32.6715 49.0275 31.3262 49.0275ZM31.7046 43.52C30.9058 43.52 30.0649 43.7722 29.4764 44.2767C29.098 44.6131 28.8878 44.9914 28.9298 45.3698C28.9719 45.7482 29.2241 46.1266 29.6445 46.3788C30.7797 47.0935 32.5454 46.9674 33.5544 46.0845C33.9328 45.7482 34.143 45.3698 34.101 44.9914C34.0589 44.6131 33.8067 44.2347 33.3863 43.9824C32.9238 43.6881 32.2932 43.52 31.7046 43.52Z" fill="#4169E1"/>
<path fill-rule="evenodd" clip-rule="evenodd" d="M55.4166 58.0245L45.873 62.3128L46.2094 64.457L55.4166 60.3368V58.0245Z" fill="#4169E1"/>
<path d="M42.594 69.2076C42.0475 69.2076 41.5009 69.0815 40.9964 68.8292C40.0295 68.3247 39.3988 67.3578 39.1886 66.1806C38.8103 63.9103 40.1556 61.4298 42.2577 60.4629C43.3508 59.9584 44.528 60.0004 45.4529 60.5049C46.4199 61.0094 47.0505 61.9764 47.2607 63.1536C47.6391 65.4238 46.2937 67.9043 44.1916 68.8713C43.6871 69.0815 43.1406 69.2076 42.594 69.2076ZM43.8973 62.2286C43.6871 62.2286 43.4349 62.2707 43.1826 62.3968C42.0054 62.9434 41.1646 64.4989 41.3748 65.7602C41.4589 66.2647 41.7112 66.6851 42.0475 66.8533C42.3838 67.0635 42.8463 67.0214 43.3508 66.8112C44.528 66.2647 45.3688 64.7091 45.1586 63.4479C45.0745 62.9434 44.8223 62.5229 44.4859 62.3548C44.3178 62.2707 44.1075 62.2286 43.8973 62.2286Z" fill="#4169E1"/>
<path fill-rule="evenodd" clip-rule="evenodd" d="M19.0508 69.2918V79.3818L16.9487 78.2047V68.7032L19.0508 69.2918Z" fill="#4169E1"/>
<path d="M18.7564 70.3848C18.4201 70.3848 18.0417 70.3427 17.7054 70.2586C15.4771 69.67 13.7534 67.3998 13.7534 65.1295C13.7534 63.9523 14.2579 62.8593 15.0988 62.2286C15.9396 61.556 17.1168 61.3878 18.2519 61.6821C20.4801 62.2707 22.2038 64.4989 22.2038 66.8112C22.2038 67.9884 21.6993 69.0815 20.8585 69.7121C20.2699 70.1746 19.5552 70.3848 18.7564 70.3848ZM17.2009 63.7001C16.9066 63.7001 16.6543 63.7842 16.4441 63.9523C16.1078 64.2046 15.9396 64.625 15.9396 65.1295C15.9396 66.4328 16.9906 67.8202 18.2939 68.1565C18.7985 68.2827 19.2609 68.2406 19.5552 67.9884C19.8915 67.7361 20.0597 67.3157 20.0597 66.8112C20.0597 65.5079 19.0087 64.1205 17.7054 63.7842C17.5372 63.7001 17.369 63.7001 17.2009 63.7001Z" fill="#4169E1"/>
</g>
<path d="M49.3189 206.644H49.0419C46.272 205.019 43.3175 204.207 40.1783 204.207C38.6641 204.207 37.4084 204.539 36.4112 205.204C35.4141 205.869 34.9155 206.672 34.9155 207.614C34.9155 208.426 35.2663 209.202 35.968 209.941C36.6697 210.661 38.5163 211.787 41.5078 213.32C44.5178 214.834 46.5305 216.164 47.5462 217.308C48.5803 218.453 49.0973 219.811 49.0973 221.38C49.0973 224.353 47.4538 226.643 44.1669 228.249C40.8984 229.838 36.0511 230.632 29.625 230.632C20.4474 230.632 15.8587 226.551 15.8587 218.389C15.8587 216.561 16.0433 214.234 16.4126 211.409H20.0966V211.686C19.6903 214.178 19.4872 216.394 19.4872 218.333C19.4872 220.789 20.2905 222.59 21.897 223.735C23.522 224.861 26.1165 225.424 29.6804 225.424C34.7955 225.424 38.701 225.036 41.397 224.261C44.1115 223.485 45.4688 222.488 45.4688 221.269C45.4688 220.494 45.0348 219.746 44.1669 219.026C43.299 218.287 41.4893 217.253 38.7379 215.923C36.005 214.594 34.0753 213.274 32.9489 211.963C31.8409 210.633 31.2869 209.156 31.2869 207.531C31.2869 205.278 32.1548 203.311 33.8906 201.631C35.6264 199.932 37.8977 199.083 40.7045 199.083C43.7884 199.083 46.6598 199.637 49.3189 200.744V206.644ZM35.9403 238.747H31.8686V234.676H35.9403V238.747ZM28.4616 238.747H24.3622V234.676H28.4616V238.747ZM83.404 230.632C80.7634 230.632 78.7137 229.828 77.2549 228.222C75.7961 226.597 75.0667 224.335 75.0667 221.436V213.624C74.1618 214.714 73.4971 215.637 73.0723 216.394C72.6846 218.112 71.4658 220.475 69.4161 223.485C67.3848 226.495 65.3721 228.877 63.3777 230.632H56.5084C59.6661 228.397 62.6391 225.563 65.4274 222.128C68.2158 218.675 69.61 216.117 69.61 214.455C69.61 211.704 67.9203 208.039 64.5411 203.459C61.1618 198.879 56.6838 194.263 51.1071 189.61H58.9459C67.3294 198.898 72.0382 206.709 73.0723 213.043C74.4019 211.51 75.0667 210.319 75.0667 209.47V187.532H78.6952V221.103C78.6952 222.673 79.0461 223.79 79.7478 224.455C80.4679 225.101 81.6405 225.424 83.2655 225.424H83.404V230.632ZM93.308 223.153C93.308 225.424 92.4955 227.243 90.8705 228.61C89.2455 229.958 87.0296 230.632 84.2228 230.632H81.7299C80.8251 230.632 80.031 230.161 79.3478 229.219C78.6645 228.277 78.3229 227.012 78.3229 225.424H84.0012C87.7867 225.424 89.6795 223.984 89.6795 221.103V210.771H93.308V223.153ZM89.4579 238.747H85.3584V234.676H89.4579V238.747ZM112.076 226.366C111.319 227.123 110.303 227.502 109.029 227.502C106.998 227.502 105.253 226.717 103.794 225.147C102.335 223.578 101.605 221.436 101.605 218.721C101.605 215.933 102.335 213.504 103.794 211.436C105.271 209.368 106.785 208.334 108.336 208.334C110.275 208.334 111.974 209.857 113.433 212.904C114.91 215.933 115.649 220.023 115.649 225.175C115.649 230.789 113.793 235.054 110.081 237.972C106.388 240.908 100.987 242.376 93.8775 242.376V237.168C99.8789 237.168 104.412 236.236 107.478 234.371C110.543 232.506 112.076 229.838 112.076 226.366ZM111.743 221.214C111.743 219.497 111.355 217.798 110.58 216.117C109.804 214.418 109.038 213.569 108.281 213.569C107.561 213.569 106.868 214.105 106.203 215.176C105.557 216.228 105.234 217.355 105.234 218.555C105.234 219.644 105.594 220.54 106.314 221.242C107.053 221.943 107.995 222.294 109.14 222.294C110.34 222.294 111.208 221.934 111.743 221.214ZM148.266 225.424C148.266 228.896 146.585 230.632 143.225 230.632H140.953C138.257 230.632 136.42 229.967 135.441 228.637C134.481 229.967 132.653 230.632 129.957 230.632C127.261 230.632 125.424 229.967 124.445 228.637C123.429 229.967 121.444 230.632 118.49 230.632H116.218C115.313 230.632 114.519 230.161 113.836 229.219C113.153 228.277 112.811 227.012 112.811 225.424H118.49C121.241 225.424 122.617 224.187 122.617 221.713V218.943H126.245V221.713C126.245 224.187 127.483 225.424 129.957 225.424C132.413 225.424 133.641 224.187 133.641 221.713V218.943H137.269V221.713C137.269 224.187 138.497 225.424 140.953 225.424C143.409 225.424 144.637 224.686 144.637 223.208V213.043H148.266V225.424Z" fill="#111625"/>
<defs>
<clipPath id="clip0_582_129">
<rect width="166" height="157.263" rx="27.9579" fill="white"/>
</clipPath>
</defs>
</svg>
