<svg width="164" height="257" viewBox="0 0 164 257" fill="none" xmlns="http://www.w3.org/2000/svg">
<path d="M163.406 57.1626V122.837C163.406 131.527 158.705 139.648 151.297 143.922L94.4547 176.688C86.9042 181.104 77.5018 181.104 70.0938 176.688L40.1769 159.45L33.0538 155.319L13.2517 143.922C5.70122 139.648 1 131.527 1 122.837V57.1626C1 48.4725 5.70122 40.3522 13.2517 36.2208L39.7495 20.835L46.5877 16.8461L70.0938 3.31223C77.6442 -1.10408 87.0467 -1.10408 94.4547 3.31223L151.297 36.0784C158.705 40.4947 163.406 48.615 163.406 57.1626Z" fill="#4169E1"/>
<path fill-rule="evenodd" clip-rule="evenodd" d="M46.5877 16.8458L76.3621 35.6507H76.5046L70.9484 40.4944H70.8061L39.7495 20.8347L46.5877 16.8458Z" fill="white"/>
<path d="M81.7756 56.5926C78.3566 56.5926 74.9375 55.7378 72.0883 53.8858C68.6692 51.7489 66.5323 48.4723 66.2474 44.7683C65.9624 41.2067 67.5295 37.5028 70.6637 34.9384C76.5046 29.9523 86.192 29.24 92.6027 33.2289C96.0218 35.3658 98.1587 38.6424 98.4436 42.3464C98.7286 45.908 97.1615 49.612 94.0273 52.1763C90.8932 55.0255 86.3344 56.5926 81.7756 56.5926ZM83.0578 37.9301C80.351 37.9301 77.5018 38.7849 75.5074 40.4944C74.2252 41.6341 73.5129 42.9163 73.6554 44.1984C73.7978 45.4806 74.6526 46.7627 76.0772 47.6175C79.9236 50.0394 85.907 49.612 89.3261 46.6203C90.6083 45.4806 91.3206 44.1984 91.1781 42.9163C91.0356 41.6341 90.1809 40.352 88.7563 39.4972C87.1892 38.5 85.0523 37.9301 83.0578 37.9301Z" fill="white"/>
<path fill-rule="evenodd" clip-rule="evenodd" d="M163.406 87.0797L131.067 101.611L132.207 108.876L163.406 94.9151V87.0797Z" fill="white"/>
<path d="M119.955 124.975C118.103 124.975 116.251 124.547 114.541 123.692C111.265 121.983 109.128 118.706 108.415 114.717C107.133 107.024 111.692 98.6191 118.815 95.3425C122.519 93.633 126.508 93.7755 129.642 95.485C132.919 97.1945 135.056 100.471 135.768 104.46C137.05 112.153 132.491 120.558 125.368 123.835C123.659 124.547 121.807 124.975 119.955 124.975ZM124.371 101.326C123.659 101.326 122.804 101.468 121.949 101.896C117.96 103.748 115.111 109.019 115.823 113.293C116.108 115.002 116.963 116.427 118.103 116.997C119.242 117.709 120.809 117.567 122.519 116.854C126.508 115.002 129.357 109.731 128.645 105.457C128.36 103.748 127.505 102.323 126.365 101.753C125.796 101.468 125.083 101.326 124.371 101.326Z" fill="white"/>
<path fill-rule="evenodd" clip-rule="evenodd" d="M40.1768 125.259V159.45L33.0537 155.461V123.265L40.1768 125.259Z" fill="white"/>
<path d="M39.1795 128.963C38.0398 128.963 36.7576 128.821 35.6179 128.536C28.0675 126.542 22.2266 118.849 22.2266 111.156C22.2266 107.167 23.9361 103.463 26.7853 101.326C29.6346 99.0465 33.6235 98.4766 37.4699 99.4739C45.0204 101.468 50.8613 109.019 50.8613 116.854C50.8613 120.843 49.1518 124.547 46.3025 126.684C44.3081 128.251 41.8862 128.963 39.1795 128.963ZM33.9084 106.312C32.9112 106.312 32.0564 106.597 31.3441 107.167C30.2044 108.022 29.6346 109.446 29.6346 111.156C29.6346 115.572 33.1961 120.273 37.6124 121.413C39.3219 121.84 40.889 121.698 41.8862 120.843C43.0259 119.988 43.5958 118.564 43.5958 116.854C43.5958 112.438 40.0342 107.737 35.6179 106.597C35.0481 106.312 34.4782 106.312 33.9084 106.312Z" fill="white"/>
<path d="M44.4844 236.793C44.4844 240.264 42.7947 242 39.4155 242H37.1442C34.4482 242 32.62 241.335 31.6598 240.006C30.6811 241.335 28.8438 242 26.1477 242C24.1903 242 22.7315 241.372 21.7713 240.116C20.4233 249.202 16.6286 253.744 10.3871 253.744C7.45099 253.744 5.03196 252.498 3.12997 250.005C1.22798 247.512 0.276989 243.994 0.276989 239.452C0.276989 236.331 0.526278 233.478 1.02486 230.893H4.65341V231.336C4.15483 233.792 3.90554 236.516 3.90554 239.507C3.90554 242.351 4.47798 244.567 5.62287 246.155C6.76776 247.743 8.35582 248.537 10.3871 248.537C16.0192 248.537 18.8352 243.385 18.8352 233.081V230.311H22.4638V233.081C22.4638 235.555 23.6918 236.793 26.1477 236.793C28.6037 236.793 29.8317 235.555 29.8317 233.081V230.311H33.4602V233.081C33.4602 235.555 34.6882 236.793 37.1442 236.793C39.6186 236.793 40.8558 236.054 40.8558 234.577V224.411H44.4844V236.793ZM56.632 234.521C56.632 236.793 55.8195 238.612 54.1945 239.978C52.5695 241.326 50.3536 242 47.5468 242H45.0539C44.149 242 43.355 241.529 42.6718 240.587C41.9885 239.646 41.6469 238.381 41.6469 236.793H47.3252C51.1107 236.793 53.0034 235.352 53.0034 232.472V222.14H56.632V234.521ZM56.632 250.116H52.5603V246.044H56.632V250.116ZM49.1533 250.116H45.0539V246.044H49.1533V250.116ZM68.7796 234.521C68.7796 236.793 67.9671 238.612 66.3421 239.978C64.7171 241.326 62.5012 242 59.6944 242H57.2015C56.2967 242 55.5026 241.529 54.8194 240.587C54.1361 239.646 53.7945 238.381 53.7945 236.793H59.4728C63.2583 236.793 65.1511 235.352 65.1511 232.472V222.14H68.7796V234.521ZM64.9295 250.116H60.83V246.044H64.9295V250.116ZM101.397 236.793C101.397 240.264 99.7163 242 96.3555 242H94.0842C91.3882 242 89.5508 241.335 88.5721 240.006C87.6119 241.335 85.7838 242 83.0877 242C80.3917 242 78.5544 241.335 77.5757 240.006C76.56 241.335 74.575 242 71.6204 242H69.3491C68.4443 242 67.6502 241.529 66.967 240.587C66.2838 239.646 65.9421 238.381 65.9421 236.793H71.6204C74.3718 236.793 75.7475 235.555 75.7475 233.081V230.311H79.3761V233.081C79.3761 235.555 80.6133 236.793 83.0877 236.793C85.5437 236.793 86.7717 235.555 86.7717 233.081V230.311H90.4002V233.081C90.4002 235.555 91.6282 236.793 94.0842 236.793C96.5402 236.793 97.7681 236.054 97.7681 234.577V224.411H101.397V236.793ZM149.679 218.013H149.402C146.632 216.388 143.678 215.575 140.539 215.575C139.024 215.575 137.769 215.908 136.771 216.572C135.774 217.237 135.276 218.04 135.276 218.982C135.276 219.795 135.627 220.57 136.328 221.309C137.03 222.029 138.877 223.156 141.868 224.688C144.878 226.202 146.891 227.532 147.906 228.677C148.94 229.822 149.458 231.179 149.458 232.749C149.458 235.722 147.814 238.011 144.527 239.618C141.259 241.206 136.411 242 129.985 242C120.808 242 116.219 237.919 116.219 229.757C116.219 227.929 116.404 225.602 116.773 222.777H120.457V223.054C120.051 225.547 119.847 227.763 119.847 229.702C119.847 232.158 120.651 233.958 122.257 235.103C123.882 236.229 126.477 236.793 130.041 236.793C135.156 236.793 139.061 236.405 141.757 235.629C144.472 234.854 145.829 233.857 145.829 232.638C145.829 231.862 145.395 231.114 144.527 230.394C143.659 229.656 141.85 228.621 139.098 227.292C136.365 225.962 134.436 224.642 133.309 223.331C132.201 222.001 131.647 220.524 131.647 218.899C131.647 216.646 132.515 214.68 134.251 212.999C135.987 211.3 138.258 210.451 141.065 210.451C144.149 210.451 147.02 211.005 149.679 212.113V218.013ZM136.301 250.116H132.229V246.044H136.301V250.116ZM128.822 250.116H124.722V246.044H128.822V250.116ZM158.447 242H154.819V198.901H158.447V242Z" fill="#111625"/>
</svg>
