<svg width="300" height="90" viewBox="0 0 300 90" fill="none" xmlns="http://www.w3.org/2000/svg">
<g clip-path="url(#clip0_50_219)">
<rect width="95" height="90" fill="#4169E1"/>
<path d="M40.5 54H79V75C79 75.5523 78.5523 76 78 76H47.5C43.634 76 40.5 72.866 40.5 69V54Z" fill="#232323"/>
<path d="M61.032 82.0641C66.0203 82.0641 70.0641 78.0203 70.0641 73.032C70.0641 68.0438 66.0203 64 61.032 64C56.0438 64 52 68.0438 52 73.032C52 78.0203 56.0438 82.0641 61.032 82.0641Z" fill="#232323"/>
<path d="M61.0319 77.2901C63.3835 77.2901 65.2898 75.3837 65.2898 73.0321C65.2898 70.6805 63.3835 68.7742 61.0319 68.7742C58.6803 68.7742 56.7739 70.6805 56.7739 73.0321C56.7739 75.3837 58.6803 77.2901 61.0319 77.2901Z" fill="#F3F3F3"/>
<rect x="-19.5571" y="11" width="56.5" height="45.6277" rx="4" fill="white"/>
<path d="M-11.9681 73.4787H47.922V66.712H-15.5029C-14.493 69.0349 -13.281 71.2568 -11.9681 73.4787Z" fill="#232323"/>
<path d="M11.9681 82.1067C16.9563 82.1067 21.0001 78.0629 21.0001 73.0746C21.0001 68.0864 16.9563 64.0426 11.9681 64.0426C6.97981 64.0426 2.93604 68.0864 2.93604 73.0746C2.93604 78.0629 6.97981 82.1067 11.9681 82.1067Z" fill="#232323"/>
<path d="M11.9684 77.3327C14.32 77.3327 16.2264 75.4263 16.2264 73.0747C16.2264 70.7231 14.32 68.8168 11.9684 68.8168C9.6168 68.8168 7.71045 70.7231 7.71045 73.0747C7.71045 75.4263 9.6168 77.3327 11.9684 77.3327Z" fill="#F3F3F3"/>
<path d="M80.5 53.8712V58.5868C80.5 58.891 80.3987 59.0938 80.1962 59.1952C79.9937 59.398 79.7912 59.4994 79.5887 59.4994C79.5887 59.4994 73.8171 59.6008 69.3618 57.2687C69.1593 57.1673 69.058 57.0659 68.8555 57.0659C65.3115 55.3421 61.3625 54.4296 57.3122 54.4296H42.225C42.225 54.4296 41.7187 42.213 42.225 31.9719C42.7313 21.7308 45.6605 19.5468 45.6605 19.5468C45.6605 19.5468 69.3618 25.7867 73.3108 32.5803C75.2347 36.0278 76.7535 40.5906 77.8673 44.2409C78.9812 47.9926 79.4874 50.8317 79.4874 50.8317C80.095 50.8317 80.5 53.3642 80.5 53.8712Z" fill="white"/>
<path d="M80.1926 50.6813L80.4426 53.5827C80.1396 53.5827 80.3269 53.5827 77.8281 53.5827H76.6715C75.7862 53.5827 75.4938 53.5827 75.0898 53.5827H73.1709C72.666 53.5827 72.262 53.4817 71.858 53.2797C68.0202 51.5628 64.6874 50.0479 62.0615 48.331C59.1326 46.5131 57.0117 43.4832 56.2038 40.1504L55.3958 36.8175C55.2948 36.3126 55.5978 35.9086 56.1028 35.9086H74.9889C77.8167 42.5742 80.1926 50.6813 80.1926 50.6813Z" fill="#232323"/>
<rect width="24" height="8.5" rx="1.5" transform="matrix(-1 0 0 1 22.9429 59.4312)" fill="#232323"/>
<path d="M40.4429 23.4767C40.4429 21.2675 42.2337 19.4767 44.4429 19.4767H44.9429C46.8759 19.4767 48.4429 21.0437 48.4429 22.9767V51.9291C48.4429 53.3098 47.3236 54.4291 45.9429 54.4291H40.4429V23.4767Z" fill="white"/>
<path d="M16.2583 19.5781C17.3477 18.941 18.7017 18.9445 19.7612 19.5762L19.769 19.5801L29.3608 25.1094V25.1104C30.4345 25.7504 31.1128 26.9278 31.1128 28.1543V39.2461C31.1127 40.4218 30.5143 41.5251 29.563 42.1641L29.3687 42.2861L19.769 47.8193L19.7651 47.8213C18.6759 48.4583 17.3227 48.4556 16.2632 47.8242L16.2554 47.8193L11.2026 44.9082H11.2017L10.0005 44.2109L9.99951 44.21L6.65479 42.2852L6.65088 42.2832C5.56604 41.669 4.88729 40.4986 4.88721 39.2461V28.1543C4.88721 26.9 5.56652 25.7337 6.64307 25.1445L6.6499 25.1416L6.65674 25.1377L11.1323 22.5391L11.1333 22.5381L12.2847 21.8662L16.2554 19.5811L16.2583 19.5781Z" stroke="#4169E1" stroke-width="1.20301"/>
<path fill-rule="evenodd" clip-rule="evenodd" d="M11.985 21.3451L17.0135 24.521H17.0376L16.0992 25.3391H16.0752L10.8301 22.0188L11.985 21.3451Z" fill="#4169E1"/>
<path d="M17.9274 28.0579C17.35 28.0579 16.7726 27.9135 16.2914 27.6007C15.7139 27.2398 15.353 26.6864 15.3049 26.0609C15.2568 25.4594 15.5214 24.8338 16.0508 24.4007C17.0372 23.5586 18.6733 23.4383 19.756 24.112C20.3335 24.4729 20.6944 25.0263 20.7425 25.6518C20.7906 26.2534 20.5259 26.8789 19.9966 27.312C19.4673 27.7932 18.6974 28.0579 17.9274 28.0579ZM18.144 24.906C17.6868 24.906 17.2056 25.0503 16.8688 25.3391C16.6523 25.5315 16.532 25.7481 16.556 25.9646C16.5801 26.1812 16.7244 26.3977 16.965 26.5421C17.6147 26.9511 18.6252 26.8789 19.2026 26.3737C19.4192 26.1812 19.5395 25.9646 19.5154 25.7481C19.4914 25.5315 19.347 25.315 19.1064 25.1706C18.8417 25.0022 18.4808 24.906 18.144 24.906Z" fill="#4169E1"/>
<path fill-rule="evenodd" clip-rule="evenodd" d="M31.7141 33.2068L26.2524 35.6609L26.4449 36.888L31.7141 34.5301V33.2068Z" fill="#4169E1"/>
<path d="M24.3759 39.6067C24.0631 39.6067 23.7503 39.5346 23.4616 39.3902C22.9082 39.1015 22.5473 38.5481 22.427 37.8744C22.2105 36.5752 22.9804 35.1556 24.1834 34.6022C24.809 34.3135 25.4827 34.3376 26.012 34.6263C26.5654 34.915 26.9263 35.4684 27.0466 36.1421C27.2631 37.4413 26.4932 38.8609 25.2902 39.4143C25.0015 39.5346 24.6887 39.6067 24.3759 39.6067ZM25.1218 35.6128C25.0015 35.6128 24.8571 35.6368 24.7128 35.709C24.0391 36.0218 23.5579 36.912 23.6782 37.6338C23.7263 37.9225 23.8707 38.1631 24.0631 38.2594C24.2556 38.3797 24.5203 38.3556 24.809 38.2353C25.4827 37.9225 25.9639 37.0323 25.8436 36.3105C25.7955 36.0218 25.6511 35.7812 25.4586 35.6849C25.3624 35.6368 25.2421 35.6128 25.1218 35.6128Z" fill="#4169E1"/>
<path fill-rule="evenodd" clip-rule="evenodd" d="M10.9022 39.6548V45.4293L9.69922 44.7556V39.318L10.9022 39.6548Z" fill="#4169E1"/>
<path d="M10.7338 40.2804C10.5413 40.2804 10.3247 40.2564 10.1323 40.2082C8.85707 39.8714 7.87061 38.5721 7.87061 37.2729C7.87061 36.5992 8.15933 35.9736 8.64053 35.6127C9.12173 35.2278 9.79542 35.1315 10.445 35.3C11.7202 35.6368 12.7067 36.912 12.7067 38.2353C12.7067 38.909 12.418 39.5345 11.9368 39.8954C11.5999 40.1601 11.1909 40.2804 10.7338 40.2804ZM9.84354 36.4548C9.67512 36.4548 9.53076 36.503 9.41045 36.5992C9.21797 36.7436 9.12173 36.9842 9.12173 37.2729C9.12173 38.0188 9.72324 38.8127 10.4691 39.0052C10.7578 39.0774 11.0225 39.0533 11.1909 38.909C11.3834 38.7646 11.4796 38.524 11.4796 38.2353C11.4796 37.4894 10.8781 36.6954 10.1323 36.503C10.036 36.4548 9.93978 36.4548 9.84354 36.4548Z" fill="#4169E1"/>
</g>
<path d="M134.288 67.7942C130.752 67.7942 127.831 67.0473 125.524 65.5535C123.236 64.0596 121.817 61.9796 121.269 59.3135L124.616 58.7462C125.089 60.5615 126.204 62.008 127.963 63.0858C129.721 64.1636 131.877 64.7025 134.43 64.7025C136.964 64.7025 138.977 64.1636 140.471 63.0858C141.965 62.008 142.712 60.5331 142.712 58.6611C142.712 57.64 142.476 56.808 142.003 56.1651C141.549 55.5033 140.641 54.8982 139.28 54.3498C137.919 53.8015 135.895 53.1585 133.21 52.4211C130.374 51.6647 128.152 50.9084 126.545 50.152C124.956 49.3956 123.831 48.5353 123.169 47.5709C122.527 46.6065 122.205 45.4247 122.205 44.0255C122.205 42.3425 122.687 40.8676 123.652 39.6007C124.616 38.3149 125.959 37.3127 127.679 36.5942C129.419 35.8756 131.423 35.5164 133.692 35.5164C135.961 35.5164 138.004 35.8945 139.819 36.6509C141.634 37.3884 143.1 38.4284 144.215 39.7709C145.331 41.0945 145.974 42.6356 146.144 44.3942L142.797 45.0182C142.476 43.0516 141.483 41.5011 139.819 40.3665C138.155 39.2131 136.075 38.6269 133.579 38.608C131.215 38.5702 129.287 39.0429 127.793 40.0262C126.299 40.9905 125.552 42.2669 125.552 43.8553C125.552 44.7629 125.807 45.5382 126.318 46.1811C126.847 46.8051 127.774 47.3818 129.097 47.9113C130.421 48.4407 132.293 49.008 134.713 49.6131C137.663 50.3695 139.961 51.1447 141.606 51.9389C143.27 52.7331 144.442 53.6691 145.123 54.7469C145.804 55.8058 146.144 57.12 146.144 58.6895C146.144 61.5258 145.085 63.7571 142.967 65.3833C140.868 66.9905 137.975 67.7942 134.288 67.7942ZM162.512 67.7091C160.829 67.7091 159.316 67.4633 157.973 66.9716C156.65 66.48 155.496 65.7898 154.513 64.9011C153.53 63.9935 152.717 62.9345 152.074 61.7244C151.431 60.4953 150.949 59.1527 150.627 57.6967C150.325 56.2407 150.173 54.7185 150.173 53.1302V36.3673H153.464V52.3076C153.464 54.2364 153.653 55.9571 154.031 57.4698C154.428 58.9825 155.014 60.2684 155.789 61.3273C156.584 62.3862 157.567 63.1898 158.739 63.7382C159.931 64.2865 161.33 64.5607 162.937 64.5607C164.601 64.5607 166.038 64.2771 167.248 63.7098C168.477 63.1236 169.48 62.3105 170.255 61.2705C171.049 60.2305 171.635 59.0015 172.013 57.5833C172.411 56.1462 172.609 54.5862 172.609 52.9033L175.19 53.2153C175.19 56.5244 174.623 59.2567 173.488 61.4124C172.373 63.5491 170.86 65.1375 168.95 66.1775C167.04 67.1985 164.894 67.7091 162.512 67.7091ZM172.921 67V60.1076H172.609V36.3673H175.899V67H172.921ZM195.527 67.8509C192.767 67.8509 190.431 67.1324 188.521 65.6953C186.612 64.2582 185.156 62.32 184.153 59.8807C183.151 57.4415 182.65 54.6902 182.65 51.6269C182.65 48.5447 183.151 45.7935 184.153 43.3731C185.156 40.9338 186.64 39.0145 188.607 37.6153C190.573 36.216 192.984 35.5164 195.839 35.5164C198.619 35.5164 200.992 36.2255 202.959 37.6436C204.925 39.0618 206.419 40.9905 207.44 43.4298C208.48 45.8691 209 48.6015 209 51.6269C209 54.6902 208.471 57.4509 207.412 59.9091C206.372 62.3484 204.849 64.2865 202.845 65.7236C200.86 67.1418 198.42 67.8509 195.527 67.8509ZM182.111 80.6145V36.3673H185.089V59.9658H185.373V80.6145H182.111ZM195.329 64.7309C197.579 64.7309 199.451 64.1542 200.945 63.0007C202.457 61.8473 203.592 60.2873 204.348 58.3207C205.124 56.3353 205.511 54.104 205.511 51.6269C205.511 49.1687 205.133 46.9658 204.377 45.0182C203.639 43.0516 202.514 41.5011 201.001 40.3665C199.508 39.2131 197.598 38.6364 195.272 38.6364C193.022 38.6364 191.14 39.1942 189.628 40.3098C188.115 41.4065 186.98 42.9382 186.224 44.9047C185.468 46.8713 185.089 49.112 185.089 51.6269C185.089 54.1229 185.458 56.3636 186.196 58.3491C186.952 60.3156 188.087 61.8756 189.599 63.0291C191.131 64.1636 193.041 64.7309 195.329 64.7309ZM226.953 67.8509C224.193 67.8509 221.857 67.1324 219.948 65.6953C218.038 64.2582 216.582 62.32 215.58 59.8807C214.577 57.4415 214.076 54.6902 214.076 51.6269C214.076 48.5447 214.577 45.7935 215.58 43.3731C216.582 40.9338 218.066 39.0145 220.033 37.6153C221.999 36.216 224.41 35.5164 227.265 35.5164C230.045 35.5164 232.418 36.2255 234.385 37.6436C236.351 39.0618 237.845 40.9905 238.866 43.4298C239.906 45.8691 240.426 48.6015 240.426 51.6269C240.426 54.6902 239.897 57.4509 238.838 59.9091C237.798 62.3484 236.276 64.2865 234.271 65.7236C232.286 67.1418 229.846 67.8509 226.953 67.8509ZM213.537 80.6145V36.3673H216.516V59.9658H216.799V80.6145H213.537ZM226.755 64.7309C229.005 64.7309 230.877 64.1542 232.371 63.0007C233.884 61.8473 235.018 60.2873 235.774 58.3207C236.55 56.3353 236.937 54.104 236.937 51.6269C236.937 49.1687 236.559 46.9658 235.803 45.0182C235.065 43.0516 233.94 41.5011 232.428 40.3665C230.934 39.2131 229.024 38.6364 226.698 38.6364C224.448 38.6364 222.566 39.1942 221.054 40.3098C219.541 41.4065 218.406 42.9382 217.65 44.9047C216.894 46.8713 216.516 49.112 216.516 51.6269C216.516 54.1229 216.884 56.3636 217.622 58.3491C218.378 60.3156 219.513 61.8756 221.025 63.0291C222.557 64.1636 224.467 64.7309 226.755 64.7309ZM245.531 67V25.3055H248.792V67H245.531Z" fill="#030913"/>
<path d="M264.124 67.8509C261.931 67.8509 260.068 67.4349 258.537 66.6029C257.024 65.752 255.87 64.6269 255.076 63.2276C254.301 61.8095 253.913 60.2495 253.913 58.5476C253.913 57.1295 254.131 55.8342 254.566 54.6618C255.001 53.4895 255.7 52.4589 256.665 51.5702C257.648 50.6625 258.962 49.9062 260.607 49.3011C261.742 48.8851 263.094 48.5164 264.663 48.1949C266.233 47.8735 268.01 47.5709 269.996 47.2873C271.981 46.9847 274.165 46.6538 276.548 46.2945L273.768 47.8262C273.768 46.0109 273.333 44.6778 272.463 43.8269C271.593 42.976 270.137 42.5505 268.095 42.5505C266.961 42.5505 265.779 42.8247 264.55 43.3731C263.321 43.9215 262.46 44.8953 261.969 46.2945L254.991 44.0822C255.766 41.5484 257.223 39.4873 259.359 37.8989C261.496 36.3105 264.408 35.5164 268.095 35.5164C270.799 35.5164 273.201 35.9324 275.3 36.7644C277.399 37.5964 278.987 39.0335 280.065 41.0756C280.67 42.2102 281.029 43.3447 281.143 44.4793C281.256 45.6138 281.313 46.8807 281.313 48.28V67H274.562V60.7033L275.527 62.008C274.033 64.0691 272.416 65.5629 270.676 66.4895C268.956 67.3971 266.772 67.8509 264.124 67.8509ZM265.769 61.7811C267.188 61.7811 268.379 61.5353 269.343 61.0436C270.327 60.5331 271.102 59.9564 271.669 59.3135C272.255 58.6705 272.652 58.1316 272.86 57.6967C273.257 56.8647 273.484 55.9004 273.541 54.8036C273.617 53.688 273.655 52.7615 273.655 52.024L275.924 52.5913C273.636 52.9695 271.783 53.2909 270.364 53.5556C268.946 53.8015 267.802 54.0284 266.932 54.2364C266.063 54.4444 265.297 54.6713 264.635 54.9171C263.879 55.2196 263.264 55.5505 262.791 55.9098C262.337 56.2502 261.997 56.6284 261.77 57.0444C261.562 57.4604 261.458 57.9236 261.458 58.4342C261.458 59.1338 261.628 59.7389 261.969 60.2495C262.328 60.7411 262.829 61.1193 263.472 61.384C264.115 61.6487 264.881 61.7811 265.769 61.7811ZM287.553 32.1127V25.3055H295.268V32.1127H287.553ZM287.553 67V36.3673H295.268V67H287.553Z" fill="#4169E1"/>
<defs>
<clipPath id="clip0_50_219">
<rect width="95" height="90" rx="16" fill="white"/>
</clipPath>
</defs>
</svg>
