<svg width="190" height="262" viewBox="0 0 190 262" fill="none" xmlns="http://www.w3.org/2000/svg">
<g clip-path="url(#clip0_50_66)">
<rect width="190" height="180" fill="#4169E1"/>
<path d="M81 108H158V150C158 151.105 157.105 152 156 152H95C87.268 152 81 145.732 81 138V108Z" fill="#232323"/>
<path d="M122.064 164.128C132.041 164.128 140.128 156.041 140.128 146.064C140.128 136.088 132.041 128 122.064 128C112.088 128 104 136.088 104 146.064C104 156.041 112.088 164.128 122.064 164.128Z" fill="#232323"/>
<path d="M122.064 154.58C126.767 154.58 130.58 150.768 130.58 146.065C130.58 141.361 126.767 137.549 122.064 137.549C117.361 137.549 113.548 141.361 113.548 146.065C113.548 150.768 117.361 154.58 122.064 154.58Z" fill="#F3F3F3"/>
<rect x="-39.1147" y="22" width="113" height="91.2555" rx="8" fill="white"/>
<path d="M-23.9357 146.957H95.8444V133.424H-31.0054C-28.9855 138.07 -26.5616 142.514 -23.9357 146.957Z" fill="#232323"/>
<path d="M23.9361 164.213C33.9126 164.213 42.0002 156.126 42.0002 146.149C42.0002 136.173 33.9126 128.085 23.9361 128.085C13.9596 128.085 5.87207 136.173 5.87207 146.149C5.87207 156.126 13.9596 164.213 23.9361 164.213Z" fill="#232323"/>
<path d="M23.9363 154.666C28.6395 154.666 32.4522 150.853 32.4522 146.15C32.4522 141.447 28.6395 137.634 23.9363 137.634C19.2331 137.634 15.4204 141.447 15.4204 146.15C15.4204 150.853 19.2331 154.666 23.9363 154.666Z" fill="#F3F3F3"/>
<path d="M161 107.742V117.173C161 117.782 160.797 118.187 160.392 118.39C159.987 118.796 159.582 118.999 159.177 118.999C159.177 118.999 147.634 119.201 138.724 114.537C138.319 114.334 138.116 114.131 137.711 114.131C130.623 110.684 122.725 108.859 114.624 108.859H84.45C84.45 108.859 83.4375 84.4258 84.45 63.9435C85.4626 43.4613 91.321 39.0933 91.321 39.0933C91.321 39.0933 138.724 51.5731 146.622 65.1603C150.469 72.0553 153.507 81.181 155.735 88.4816C157.962 95.985 158.975 101.663 158.975 101.663C160.19 101.663 161 106.728 161 107.742Z" fill="white"/>
<path d="M160.385 101.362L160.885 107.165C160.279 107.165 160.654 107.165 155.656 107.165H153.343C151.572 107.165 150.988 107.165 150.18 107.165H146.342C145.332 107.165 144.524 106.963 143.716 106.559C136.04 103.125 129.375 100.096 124.123 96.6617C118.265 93.0259 114.023 86.9662 112.408 80.3005L110.792 73.6348C110.59 72.6249 111.196 71.8169 112.206 71.8169H149.978C155.633 85.1482 160.385 101.362 160.385 101.362Z" fill="#232323"/>
<rect width="48" height="17" rx="3" transform="matrix(-1 0 0 1 45.8853 118.862)" fill="#232323"/>
<path d="M80.8853 46.9531C80.8853 42.5348 84.467 38.9531 88.8853 38.9531H89.8853C93.7512 38.9531 96.8853 42.0871 96.8853 45.9531V103.858C96.8853 106.619 94.6467 108.858 91.8853 108.858H80.8853V46.9531Z" fill="white"/>
<path d="M32.5166 39.1572C34.6954 37.8828 37.4033 37.889 39.5225 39.1523L39.5293 39.1562L39.5371 39.1611L58.7373 50.2285C60.8759 51.5106 62.2256 53.8613 62.2256 56.3086V78.4922C62.2254 80.9217 60.9483 83.1974 58.9346 84.4531L58.7373 84.5713L39.5371 95.6387L39.5312 95.6426C37.3524 96.917 34.6446 96.9108 32.5254 95.6475L32.5176 95.6436L32.5098 95.6387L22.4053 89.8164L20.002 88.4229L19.998 88.4209L13.3096 84.5713L13.3018 84.5664C11.1321 83.3381 9.77458 80.9973 9.77441 78.4922V56.3086C9.77441 53.7998 11.1338 51.4683 13.2871 50.29L13.3008 50.2822L13.3135 50.2754L22.2637 45.0781L22.2666 45.0771L24.5752 43.7285L32.5098 39.1611L32.5166 39.1572Z" stroke="#4169E1" stroke-width="2.40601"/>
<path fill-rule="evenodd" clip-rule="evenodd" d="M23.9699 42.6902L34.0271 49.0421H34.0752L32.1985 50.6782H32.1504L21.6602 44.0376L23.9699 42.6902Z" fill="#4169E1"/>
<path d="M35.8554 56.1157C34.7005 56.1157 33.5456 55.827 32.5832 55.2014C31.4283 54.4796 30.7065 53.3729 30.6103 52.1217C30.514 50.9187 31.0434 49.6676 32.102 48.8014C34.0749 47.1172 37.3471 46.8766 39.5125 48.224C40.6674 48.9458 41.3892 50.0526 41.4855 51.3037C41.5817 52.5067 41.0524 53.7578 39.9937 54.624C38.9351 55.5864 37.3952 56.1157 35.8554 56.1157ZM36.2885 49.812C35.3742 49.812 34.4118 50.1007 33.7381 50.6781C33.305 51.0631 33.0644 51.4962 33.1125 51.9293C33.1606 52.3623 33.4494 52.7954 33.9306 53.0841C35.2298 53.9022 37.2509 53.7578 38.4058 52.7473C38.8388 52.3623 39.0794 51.9293 39.0313 51.4962C38.9832 51.0631 38.6945 50.63 38.2133 50.3413C37.684 50.0044 36.9621 49.812 36.2885 49.812Z" fill="#4169E1"/>
<path fill-rule="evenodd" clip-rule="evenodd" d="M63.4282 66.4136L52.5049 71.3218L52.8898 73.776L63.4282 69.0602V66.4136Z" fill="#4169E1"/>
<path d="M48.7518 79.2135C48.1263 79.2135 47.5007 79.0691 46.9233 78.7804C45.8165 78.2029 45.0947 77.0962 44.8541 75.7488C44.421 73.1503 45.9609 70.3112 48.3669 69.2045C49.618 68.627 50.9654 68.6751 52.024 69.2526C53.1308 69.83 53.8526 70.9368 54.0932 72.2842C54.5263 74.8826 52.9864 77.7217 50.5804 78.8285C50.003 79.0691 49.3774 79.2135 48.7518 79.2135ZM50.2436 71.2255C50.003 71.2255 49.7142 71.2736 49.4255 71.418C48.0781 72.0435 47.1157 73.824 47.3563 75.2676C47.4526 75.8451 47.7413 76.3263 48.1263 76.5187C48.5112 76.7593 49.0406 76.7112 49.618 76.4706C50.9654 75.8451 51.9278 74.0646 51.6872 72.621C51.5909 72.0435 51.3022 71.5623 50.9172 71.3699C50.7248 71.2736 50.4842 71.2255 50.2436 71.2255Z" fill="#4169E1"/>
<path fill-rule="evenodd" clip-rule="evenodd" d="M21.8045 79.3097V90.8585L19.3984 89.5112V78.636L21.8045 79.3097Z" fill="#4169E1"/>
<path d="M21.4675 80.5608C21.0826 80.5608 20.6495 80.5127 20.2645 80.4165C17.7141 79.7428 15.7412 77.1443 15.7412 74.5458C15.7412 73.1984 16.3187 71.9473 17.2811 71.2255C18.2435 70.4556 19.5908 70.2631 20.8901 70.5999C23.4405 71.2736 25.4134 73.824 25.4134 76.4706C25.4134 77.818 24.8359 79.0691 23.8735 79.7909C23.1999 80.3202 22.3818 80.5608 21.4675 80.5608ZM19.6871 72.9097C19.3502 72.9097 19.0615 73.0059 18.8209 73.1984C18.4359 73.4871 18.2435 73.9683 18.2435 74.5458C18.2435 76.0375 19.4465 77.6255 20.9382 78.0104C21.5156 78.1548 22.045 78.1067 22.3818 77.818C22.7668 77.5292 22.9593 77.048 22.9593 76.4706C22.9593 74.9789 21.7562 73.3909 20.2645 73.0059C20.072 72.9097 19.8796 72.9097 19.6871 72.9097Z" fill="#4169E1"/>
</g>
<path d="M19.788 248.794C16.252 248.794 13.3305 248.047 11.0236 246.553C8.73564 245.06 7.31745 242.98 6.76909 240.313L10.116 239.746C10.5887 241.561 11.7044 243.008 13.4629 244.086C15.2215 245.164 17.3771 245.703 19.9298 245.703C22.4636 245.703 24.4775 245.164 25.9713 244.086C27.4651 243.008 28.212 241.533 28.212 239.661C28.212 238.64 27.9756 237.808 27.5029 237.165C27.0491 236.503 26.1415 235.898 24.78 235.35C23.4185 234.801 21.3953 234.159 18.7102 233.421C15.8738 232.665 13.652 231.908 12.0447 231.152C10.4564 230.396 9.33127 229.535 8.66945 228.571C8.02655 227.607 7.70509 226.425 7.70509 225.025C7.70509 223.343 8.18727 221.868 9.15164 220.601C10.116 219.315 11.4585 218.313 13.1793 217.594C14.9189 216.876 16.9233 216.516 19.1924 216.516C21.4615 216.516 23.5036 216.895 25.3189 217.651C27.1342 218.388 28.5996 219.428 29.7153 220.771C30.8309 222.095 31.4738 223.636 31.644 225.394L28.2971 226.018C27.9756 224.052 26.9829 222.501 25.3189 221.367C23.6549 220.213 21.5749 219.627 19.0789 219.608C16.7153 219.57 14.7865 220.043 13.2927 221.026C11.7989 221.991 11.052 223.267 11.052 224.855C11.052 225.763 11.3073 226.538 11.8178 227.181C12.3473 227.805 13.2738 228.382 14.5975 228.911C15.9211 229.441 17.7931 230.008 20.2135 230.613C23.1633 231.369 25.4607 232.145 27.1058 232.939C28.7698 233.733 29.9422 234.669 30.6229 235.747C31.3036 236.806 31.644 238.12 31.644 239.689C31.644 242.526 30.5851 244.757 28.4673 246.383C26.3684 247.991 23.4753 248.794 19.788 248.794ZM48.0116 248.709C46.3287 248.709 44.816 248.463 43.4734 247.972C42.1498 247.48 40.9963 246.79 40.013 245.901C39.0298 244.993 38.2167 243.935 37.5738 242.724C36.9309 241.495 36.4487 240.153 36.1272 238.697C35.8247 237.241 35.6734 235.719 35.6734 234.13V217.367H38.9636V233.308C38.9636 235.236 39.1527 236.957 39.5309 238.47C39.928 239.983 40.5141 241.268 41.2894 242.327C42.0836 243.386 43.0669 244.19 44.2392 244.738C45.4305 245.287 46.8298 245.561 48.437 245.561C50.101 245.561 51.5381 245.277 52.7483 244.71C53.9774 244.124 54.9796 243.311 55.7549 242.271C56.549 241.231 57.1352 240.001 57.5134 238.583C57.9105 237.146 58.109 235.586 58.109 233.903L60.6901 234.215C60.6901 237.524 60.1229 240.257 58.9883 242.412C57.8727 244.549 56.36 246.137 54.4501 247.177C52.5403 248.199 50.3941 248.709 48.0116 248.709ZM58.421 248V241.108H58.109V217.367H61.3992V248H58.421ZM81.0273 248.851C78.2666 248.851 75.9313 248.132 74.0215 246.695C72.1117 245.258 70.6557 243.32 69.6535 240.881C68.6513 238.441 68.1502 235.69 68.1502 232.627C68.1502 229.545 68.6513 226.793 69.6535 224.373C70.6557 221.934 72.14 220.015 74.1066 218.615C76.0731 217.216 78.484 216.516 81.3393 216.516C84.1189 216.516 86.492 217.225 88.4586 218.644C90.4251 220.062 91.9189 221.991 92.94 224.43C93.98 226.869 94.5 229.601 94.5 232.627C94.5 235.69 93.9706 238.451 92.9117 240.909C91.8717 243.348 90.3495 245.287 88.3451 246.724C86.3597 248.142 83.9204 248.851 81.0273 248.851ZM67.6113 261.615V217.367H70.5895V240.966H70.8731V261.615H67.6113ZM80.8288 245.731C83.0789 245.731 84.9509 245.154 86.4448 244.001C87.9575 242.847 89.092 241.287 89.8484 239.321C90.6237 237.335 91.0113 235.104 91.0113 232.627C91.0113 230.169 90.6331 227.966 89.8768 226.018C89.1393 224.052 88.0142 222.501 86.5015 221.367C85.0077 220.213 83.0979 219.636 80.772 219.636C78.5219 219.636 76.6404 220.194 75.1277 221.31C73.6149 222.407 72.4804 223.938 71.724 225.905C70.9677 227.871 70.5895 230.112 70.5895 232.627C70.5895 235.123 70.9582 237.364 71.6957 239.349C72.452 241.316 73.5866 242.876 75.0993 244.029C76.6309 245.164 78.5408 245.731 80.8288 245.731ZM112.453 248.851C109.693 248.851 107.357 248.132 105.448 246.695C103.538 245.258 102.082 243.32 101.08 240.881C100.077 238.441 99.5762 235.69 99.5762 232.627C99.5762 229.545 100.077 226.793 101.08 224.373C102.082 221.934 103.566 220.015 105.533 218.615C107.499 217.216 109.91 216.516 112.765 216.516C115.545 216.516 117.918 217.225 119.885 218.644C121.851 220.062 123.345 221.991 124.366 224.43C125.406 226.869 125.926 229.601 125.926 232.627C125.926 235.69 125.397 238.451 124.338 240.909C123.298 243.348 121.776 245.287 119.771 246.724C117.786 248.142 115.346 248.851 112.453 248.851ZM99.0373 261.615V217.367H102.016V240.966H102.299V261.615H99.0373ZM112.255 245.731C114.505 245.731 116.377 245.154 117.871 244.001C119.384 242.847 120.518 241.287 121.274 239.321C122.05 237.335 122.437 235.104 122.437 232.627C122.437 230.169 122.059 227.966 121.303 226.018C120.565 224.052 119.44 222.501 117.928 221.367C116.434 220.213 114.524 219.636 112.198 219.636C109.948 219.636 108.066 220.194 106.554 221.31C105.041 222.407 103.906 223.938 103.15 225.905C102.394 227.871 102.016 230.112 102.016 232.627C102.016 235.123 102.384 237.364 103.122 239.349C103.878 241.316 105.013 242.876 106.525 244.029C108.057 245.164 109.967 245.731 112.255 245.731ZM131.031 248V206.305H134.292V248H131.031Z" fill="white"/>
<path d="M149.624 248.851C147.431 248.851 145.568 248.435 144.037 247.603C142.524 246.752 141.37 245.627 140.576 244.228C139.801 242.809 139.413 241.249 139.413 239.548C139.413 238.129 139.631 236.834 140.066 235.662C140.501 234.489 141.2 233.459 142.165 232.57C143.148 231.663 144.462 230.906 146.107 230.301C147.242 229.885 148.594 229.516 150.163 229.195C151.733 228.873 153.51 228.571 155.496 228.287C157.481 227.985 159.665 227.654 162.048 227.295L159.268 228.826C159.268 227.011 158.833 225.678 157.963 224.827C157.093 223.976 155.637 223.551 153.595 223.551C152.461 223.551 151.279 223.825 150.05 224.373C148.821 224.921 147.96 225.895 147.469 227.295L140.491 225.082C141.266 222.548 142.723 220.487 144.859 218.899C146.996 217.311 149.908 216.516 153.595 216.516C156.299 216.516 158.701 216.932 160.8 217.764C162.899 218.596 164.487 220.033 165.565 222.076C166.17 223.21 166.529 224.345 166.643 225.479C166.756 226.614 166.813 227.881 166.813 229.28V248H160.062V241.703L161.027 243.008C159.533 245.069 157.916 246.563 156.176 247.489C154.456 248.397 152.272 248.851 149.624 248.851ZM151.269 242.781C152.688 242.781 153.879 242.535 154.843 242.044C155.827 241.533 156.602 240.956 157.169 240.313C157.755 239.671 158.152 239.132 158.36 238.697C158.757 237.865 158.984 236.9 159.041 235.804C159.117 234.688 159.155 233.761 159.155 233.024L161.424 233.591C159.136 233.969 157.283 234.291 155.864 234.556C154.446 234.801 153.302 235.028 152.432 235.236C151.563 235.444 150.797 235.671 150.135 235.917C149.379 236.22 148.764 236.551 148.291 236.91C147.837 237.25 147.497 237.628 147.27 238.044C147.062 238.46 146.958 238.924 146.958 239.434C146.958 240.134 147.128 240.739 147.469 241.249C147.828 241.741 148.329 242.119 148.972 242.384C149.615 242.649 150.381 242.781 151.269 242.781ZM173.053 213.113V206.305H180.768V213.113H173.053ZM173.053 248V217.367H180.768V248H173.053Z" fill="#4169E1"/>
<defs>
<clipPath id="clip0_50_66">
<rect width="190" height="180" rx="32" fill="white"/>
</clipPath>
</defs>
</svg>
